<svg width="96" height="96" viewBox="0 0 96 96" fill="none" xmlns="http://www.w3.org/2000/svg">
<g clip-path="url(#clip0_103_6)">
<path d="M47.9632 20V10.84C47.9554 10.2977 48.1728 9.77632 48.5639 9.40002L49.3647 8.60002C49.7406 8.22139 50.2523 8.00842 50.7862 8.00842C51.32 8.00842 51.8317 8.22139 52.2077 8.60002L66.3825 22.72C67.1504 23.5113 67.1504 24.7688 66.3825 25.56L52.2077 39.68C51.8317 40.0586 51.32 40.2716 50.7862 40.2716C50.2523 40.2716 49.7406 40.0586 49.3647 39.68L48.5639 38.88C48.1728 38.5037 47.9554 37.9824 47.9632 37.44V28C34.9431 28.0383 24.323 38.4302 24.0155 51.4331C23.708 64.436 33.825 75.3173 46.8288 75.9697C59.8326 76.6221 70.9901 66.8083 71.9883 53.84C72.072 52.7984 72.9444 51.9967 73.9904 52H77.9946C78.5545 52.0057 79.0885 52.2364 79.4762 52.64C79.8402 53.0443 80.0276 53.5771 79.9967 54.12C78.8435 71.4703 64.0318 84.7253 46.6416 83.9697C29.2514 83.2141 15.6478 68.7244 16.007 51.3396C16.3661 33.9549 30.5566 20.0382 47.9632 20Z" fill="#fff"/>
</g>
<defs>
<clipPath id="clip0_103_6">
<rect width="96" height="96" fill="white"/>
</clipPath>
</defs>
</svg>
