<svg width="11" height="11" viewBox="0 0 11 11" fill="none" xmlns="http://www.w3.org/2000/svg">
<path fill-rule="evenodd" clip-rule="evenodd" d="M1.32656 1.52305C0.880782 2.09033 0.610672 2.8654 0.610672 3.67457C0.610672 5.48851 1.82124 7.01116 3.09944 8.10701C3.73228 8.64959 4.36661 9.07434 4.84339 9.36362C5.08143 9.50804 5.27938 9.61818 5.41706 9.69189C5.44451 9.70657 5.46955 9.7198 5.49202 9.73155C5.51507 9.71885 5.54081 9.7045 5.56912 9.68853C5.70713 9.6107 5.90541 9.49482 6.14388 9.34399C6.6214 9.04192 7.25674 8.60172 7.89062 8.04842C9.17343 6.92875 10.3814 5.40637 10.3814 3.67457C10.3814 2.86552 10.1114 2.09045 9.6656 1.52314C9.2213 0.957687 8.61457 0.610672 7.92921 0.610672C6.98182 0.610672 6.24699 1.2277 5.77012 2.19897L5.49605 2.75722L5.22198 2.19897C4.74508 1.22763 4.01025 0.610672 3.06289 0.610672C2.37759 0.610672 1.77086 0.957626 1.32656 1.52305ZM5.49605 10.0761C5.3636 10.3512 5.36338 10.3511 5.36338 10.3511L5.36201 10.3504L5.35853 10.3487L5.34604 10.3426C5.33529 10.3373 5.31978 10.3296 5.29981 10.3195C5.25984 10.2992 5.20204 10.2694 5.12894 10.2303C4.98278 10.1521 4.77518 10.0365 4.52661 9.88571C4.03013 9.58447 3.36679 9.1406 2.70195 8.57063C1.38479 7.44138 0 5.76328 0 3.67457C0 2.73557 0.311819 1.82603 0.846398 1.14574C1.38244 0.463571 2.15448 0 3.06289 0C4.13266 0 4.94617 0.599488 5.49605 1.4454C6.0459 0.599527 6.85941 0 7.92921 0C8.83771 0 9.60975 0.463653 10.1458 1.14583C10.6803 1.82618 10.9921 2.73572 10.9921 3.67457C10.9921 5.68444 9.60474 7.36284 8.2922 8.5085C7.6284 9.08787 6.96606 9.54649 6.47032 9.86007C6.22214 10.0171 6.01491 10.1382 5.86908 10.2205C5.79613 10.2616 5.73849 10.293 5.69867 10.3144C5.67879 10.3251 5.66334 10.3332 5.65266 10.3388L5.64029 10.3452L5.63684 10.347L5.63583 10.3476L5.6355 10.3477C5.6355 10.3477 5.63528 10.3478 5.49605 10.0761ZM5.49605 10.0761L5.6355 10.3477L5.50029 10.417L5.36338 10.3511L5.49605 10.0761Z" fill="#8B0000"/>
</svg>
